<?xml version="1.0" encoding="utf-8" standalone="no"?>
<!DOCTYPE svg PUBLIC "-//W3C//DTD SVG 1.1//EN"
  "http://www.w3.org/Graphics/SVG/1.1/DTD/svg11.dtd">
<svg xmlns:xlink="http://www.w3.org/1999/xlink" width="900pt" height="495pt" viewBox="0 0 900 495" xmlns="http://www.w3.org/2000/svg" version="1.1">
 <metadata>
  <rdf:RDF xmlns:dc="http://purl.org/dc/elements/1.1/" xmlns:cc="http://creativecommons.org/ns#" xmlns:rdf="http://www.w3.org/1999/02/22-rdf-syntax-ns#">
   <cc:Work>
    <dc:type rdf:resource="http://purl.org/dc/dcmitype/StillImage"/>
    <dc:format>image/svg+xml</dc:format>
    <dc:creator>
     <cc:Agent>
      <dc:title>Matplotlib v3.11.2, https://matplotlib.org/</dc:title>
     </cc:Agent>
    </dc:creator>
   </cc:Work>
  </rdf:RDF>
 </metadata>
 <defs>
  <style type="text/css">*{stroke-linejoin: round; stroke-linecap: butt}</style>
 </defs>
 <g id="figure_1">
  <g id="patch_1">
   <path d="M 0 495
L 900 495
L 900 0
L 0 0
z
" style="fill: #ffffff"/>
  </g>
  <g id="axes_1">
   <g id="patch_2">
    <path d="M 58.5 351.45
L 424.5 351.45
L 424.5 118.8
L 58.5 118.8
z
" style="fill: #ffffff"/>
   </g>
   <g id="matplotlib.axis_1">
    <g id="xtick_1">
     <g id="line2d_1"/>
     <g id="text_1">
      <text style="font-size: 9px; font-family: 'DejaVu Sans'; text-anchor: middle" x="117.348033" y="361.788594" transform="rotate(-0 117.348033 361.788594)">Certified hybrid</text>
     </g>
    </g>
    <g id="xtick_2">
     <g id="line2d_2"/>
     <g id="text_2">
      <text style="font-size: 9px; font-family: 'DejaVu Sans'; text-anchor: middle" x="241.5" y="361.788594" transform="rotate(-0 241.5 361.788594)">Compact hybrid</text>
     </g>
    </g>
    <g id="xtick_3">
     <g id="line2d_3"/>
     <g id="text_3">
      <text style="font-size: 9px; font-family: 'DejaVu Sans'; text-anchor: middle" x="365.651967" y="361.788594" transform="rotate(-0 365.651967 361.788594)">Local triangles</text>
     </g>
    </g>
   </g>
   <g id="matplotlib.axis_2">
    <g id="ytick_1">
     <g id="line2d_4">
      <path d="M 58.5 351.45
L 424.5 351.45
" clip-path="url(#pde4e392fad)" style="fill: none; stroke: #e1e8eb; stroke-width: 0.7; stroke-linecap: square"/>
     </g>
     <g id="line2d_5">
      <defs>
       <path id="md7e525cd09" d="M 0 0
L -3.5 0
" style="stroke: #000000; stroke-width: 0.8"/>
      </defs>
      <g>
       <use xlink:href="#md7e525cd09" x="58.5" y="351.45" style="stroke: #000000; stroke-width: 0.8"/>
      </g>
     </g>
     <g id="text_4">
      <text style="font-size: 10px; font-family: 'DejaVu Sans'; text-anchor: end" x="51.5" y="355.248828" transform="rotate(-0 51.5 355.248828)">0</text>
     </g>
    </g>
    <g id="ytick_2">
     <g id="line2d_6">
      <path d="M 58.5 301.95
L 424.5 301.95
" clip-path="url(#pde4e392fad)" style="fill: none; stroke: #e1e8eb; stroke-width: 0.7; stroke-linecap: square"/>
     </g>
     <g id="line2d_7">
      <g>
       <use xlink:href="#md7e525cd09" x="58.5" y="301.95" style="stroke: #000000; stroke-width: 0.8"/>
      </g>
     </g>
     <g id="text_5">
      <text style="font-size: 10px; font-family: 'DejaVu Sans'; text-anchor: end" x="51.5" y="305.748828" transform="rotate(-0 51.5 305.748828)">1</text>
     </g>
    </g>
    <g id="ytick_3">
     <g id="line2d_8">
      <path d="M 58.5 252.45
L 424.5 252.45
" clip-path="url(#pde4e392fad)" style="fill: none; stroke: #e1e8eb; stroke-width: 0.7; stroke-linecap: square"/>
     </g>
     <g id="line2d_9">
      <g>
       <use xlink:href="#md7e525cd09" x="58.5" y="252.45" style="stroke: #000000; stroke-width: 0.8"/>
      </g>
     </g>
     <g id="text_6">
      <text style="font-size: 10px; font-family: 'DejaVu Sans'; text-anchor: end" x="51.5" y="256.248828" transform="rotate(-0 51.5 256.248828)">2</text>
     </g>
    </g>
    <g id="ytick_4">
     <g id="line2d_10">
      <path d="M 58.5 202.95
L 424.5 202.95
" clip-path="url(#pde4e392fad)" style="fill: none; stroke: #e1e8eb; stroke-width: 0.7; stroke-linecap: square"/>
     </g>
     <g id="line2d_11">
      <g>
       <use xlink:href="#md7e525cd09" x="58.5" y="202.95" style="stroke: #000000; stroke-width: 0.8"/>
      </g>
     </g>
     <g id="text_7">
      <text style="font-size: 10px; font-family: 'DejaVu Sans'; text-anchor: end" x="51.5" y="206.748828" transform="rotate(-0 51.5 206.748828)">3</text>
     </g>
    </g>
    <g id="ytick_5">
     <g id="line2d_12">
      <path d="M 58.5 153.45
L 424.5 153.45
" clip-path="url(#pde4e392fad)" style="fill: none; stroke: #e1e8eb; stroke-width: 0.7; stroke-linecap: square"/>
     </g>
     <g id="line2d_13">
      <g>
       <use xlink:href="#md7e525cd09" x="58.5" y="153.45" style="stroke: #000000; stroke-width: 0.8"/>
      </g>
     </g>
     <g id="text_8">
      <text style="font-size: 10px; font-family: 'DejaVu Sans'; text-anchor: end" x="51.5" y="157.248828" transform="rotate(-0 51.5 157.248828)">4</text>
     </g>
    </g>
    <g id="text_9">
     <text style="font-size: 10px; font-family: 'DejaVu Sans'; text-anchor: middle" x="38.735156" y="235.125" transform="rotate(-90 38.735156 235.125)">Measured attribute + index buffers (MB)</text>
    </g>
   </g>
   <g id="patch_3">
    <path d="M 75.136364 351.45
L 114.864993 351.45
L 114.864993 234.643464
L 75.136364 234.643464
z
" clip-path="url(#pde4e392fad)" style="fill: #287887; stroke: #5b7480; stroke-width: 0.5; stroke-linejoin: miter"/>
   </g>
   <g id="patch_4">
    <path d="M 199.288331 351.45
L 239.016961 351.45
L 239.016961 234.643464
L 199.288331 234.643464
z
" clip-path="url(#pde4e392fad)" style="fill: #287887; stroke: #5b7480; stroke-width: 0.5; stroke-linejoin: miter"/>
   </g>
   <g id="patch_5">
    <path d="M 323.440299 351.45
L 363.168928 351.45
L 363.168928 316.09512
L 323.440299 316.09512
z
" clip-path="url(#pde4e392fad)" style="fill: #287887; stroke: #5b7480; stroke-width: 0.5; stroke-linejoin: miter"/>
   </g>
   <g id="patch_6">
    <path d="M 75.136364 234.643464
L 114.864993 234.643464
L 114.864993 176.240196
L 75.136364 176.240196
z
" clip-path="url(#pde4e392fad)" style="fill: #88afb8; stroke: #5b7480; stroke-width: 0.5; stroke-linejoin: miter"/>
   </g>
   <g id="patch_7">
    <path d="M 199.288331 234.643464
L 239.016961 234.643464
L 239.016961 176.240196
L 199.288331 176.240196
z
" clip-path="url(#pde4e392fad)" style="fill: #88afb8; stroke: #5b7480; stroke-width: 0.5; stroke-linejoin: miter"/>
   </g>
   <g id="patch_8">
    <path d="M 323.440299 316.09512
L 363.168928 316.09512
L 363.168928 298.41768
L 323.440299 298.41768
z
" clip-path="url(#pde4e392fad)" style="fill: #88afb8; stroke: #5b7480; stroke-width: 0.5; stroke-linejoin: miter"/>
   </g>
   <g id="patch_9">
    <path d="M 75.136364 176.240196
L 114.864993 176.240196
L 114.864993 156.75462
L 75.136364 156.75462
z
" clip-path="url(#pde4e392fad)" style="fill: #ccdbe0; stroke: #5b7480; stroke-width: 0.5; stroke-linejoin: miter"/>
   </g>
   <g id="patch_10">
    <path d="M 199.288331 176.240196
L 239.016961 176.240196
L 239.016961 156.75462
L 199.288331 156.75462
z
" clip-path="url(#pde4e392fad)" style="fill: #ccdbe0; stroke: #5b7480; stroke-width: 0.5; stroke-linejoin: miter"/>
   </g>
   <g id="patch_11">
    <path d="M 323.440299 298.41768
L 363.168928 298.41768
L 363.168928 292.5252
L 323.440299 292.5252
z
" clip-path="url(#pde4e392fad)" style="fill: #ccdbe0; stroke: #5b7480; stroke-width: 0.5; stroke-linejoin: miter"/>
   </g>
   <g id="patch_12">
    <path d="M 119.831072 351.45
L 159.559701 351.45
L 159.559701 331.61634
L 119.831072 331.61634
z
" clip-path="url(#pde4e392fad)" style="fill: url(#h324522f85e); stroke: #5b7480; stroke-width: 0.5; stroke-linejoin: miter"/>
   </g>
   <g id="patch_13">
    <path d="M 243.983039 351.45
L 283.711669 351.45
L 283.711669 331.61634
L 243.983039 331.61634
z
" clip-path="url(#pde4e392fad)" style="fill: url(#h324522f85e); stroke: #5b7480; stroke-width: 0.5; stroke-linejoin: miter"/>
   </g>
   <g id="patch_14">
    <path d="M 368.135007 351.45
L 407.863636 351.45
L 407.863636 345.435156
L 368.135007 345.435156
z
" clip-path="url(#pde4e392fad)" style="fill: url(#h324522f85e); stroke: #5b7480; stroke-width: 0.5; stroke-linejoin: miter"/>
   </g>
   <g id="patch_15">
    <path d="M 119.831072 331.61634
L 159.559701 331.61634
L 159.559701 321.69951
L 119.831072 321.69951
z
" clip-path="url(#pde4e392fad)" style="fill: url(#h15548bba11); stroke: #5b7480; stroke-width: 0.5; stroke-linejoin: miter"/>
   </g>
   <g id="patch_16">
    <path d="M 243.983039 331.61634
L 283.711669 331.61634
L 283.711669 321.69951
L 243.983039 321.69951
z
" clip-path="url(#pde4e392fad)" style="fill: url(#h15548bba11); stroke: #5b7480; stroke-width: 0.5; stroke-linejoin: miter"/>
   </g>
   <g id="patch_17">
    <path d="M 368.135007 345.435156
L 407.863636 345.435156
L 407.863636 342.427734
L 368.135007 342.427734
z
" clip-path="url(#pde4e392fad)" style="fill: url(#h15548bba11); stroke: #5b7480; stroke-width: 0.5; stroke-linejoin: miter"/>
   </g>
   <g id="patch_18">
    <path d="M 119.831072 321.69951
L 159.559701 321.69951
L 159.559701 302.213934
L 119.831072 302.213934
z
" clip-path="url(#pde4e392fad)" style="fill: url(#h854f662c7e); stroke: #5b7480; stroke-width: 0.5; stroke-linejoin: miter"/>
   </g>
   <g id="patch_19">
    <path d="M 243.983039 321.69951
L 283.711669 321.69951
L 283.711669 302.213934
L 243.983039 302.213934
z
" clip-path="url(#pde4e392fad)" style="fill: url(#h854f662c7e); stroke: #5b7480; stroke-width: 0.5; stroke-linejoin: miter"/>
   </g>
   <g id="patch_20">
    <path d="M 368.135007 342.427734
L 407.863636 342.427734
L 407.863636 336.535254
L 368.135007 336.535254
z
" clip-path="url(#pde4e392fad)" style="fill: url(#h854f662c7e); stroke: #5b7480; stroke-width: 0.5; stroke-linejoin: miter"/>
   </g>
   <g id="patch_21">
    <path d="M 58.5 351.45
L 58.5 118.8
" style="fill: none; stroke: #000000; stroke-width: 0.8; stroke-linejoin: miter; stroke-linecap: square"/>
   </g>
   <g id="patch_22">
    <path d="M 58.5 351.45
L 424.5 351.45
" style="fill: none; stroke: #000000; stroke-width: 0.8; stroke-linejoin: miter; stroke-linecap: square"/>
   </g>
   <g id="text_10">
    <text style="font-size: 9px; font-family: 'DejaVu Sans'; text-anchor: middle" x="95.000678" y="153.28962" transform="rotate(-0 95.000678 153.28962)">3.933</text>
   </g>
   <g id="text_11">
    <text style="font-size: 9px; font-family: 'DejaVu Sans'; text-anchor: middle" x="219.152646" y="153.28962" transform="rotate(-0 219.152646 153.28962)">3.933</text>
   </g>
   <g id="text_12">
    <text style="font-size: 9px; font-family: 'DejaVu Sans'; text-anchor: middle" x="343.304613" y="289.0602" transform="rotate(-0 343.304613 289.0602)">1.190</text>
   </g>
   <g id="text_13">
    <text style="font-size: 9px; font-family: 'DejaVu Sans'; text-anchor: middle" x="139.695387" y="298.748934" transform="rotate(-0 139.695387 298.748934)">0.995</text>
   </g>
   <g id="text_14">
    <text style="font-size: 9px; font-family: 'DejaVu Sans'; text-anchor: middle" x="263.847354" y="298.748934" transform="rotate(-0 263.847354 298.748934)">0.995</text>
   </g>
   <g id="text_15">
    <text style="font-size: 9px; font-family: 'DejaVu Sans'; text-anchor: middle" x="387.999322" y="333.070254" transform="rotate(-0 387.999322 333.070254)">0.301</text>
   </g>
   <g id="text_16">
    <text style="font-size: 11px; font-family: 'DejaVu Sans'; text-anchor: start" x="58.5" y="112.8" transform="rotate(-0 58.5 112.8)">A  Buffer bytes: 74.7% less in each representation</text>
   </g>
   <g id="legend_1">
    <g id="patch_23">
     <path d="M 187.253906 401.286094
L 205.253906 401.286094
L 205.253906 394.986094
L 187.253906 394.986094
z
" style="fill: #287887; stroke: #5b7480; stroke-width: 0.5; stroke-linejoin: miter"/>
    </g>
    <g id="text_17">
     <text style="font-size: 9px; font-family: 'DejaVu Sans'; text-anchor: start" x="212.453906" y="401.286094" transform="rotate(-0 212.453906 401.286094)">Positions (Float64)</text>
    </g>
    <g id="patch_24">
     <path d="M 187.253906 414.786797
L 205.253906 414.786797
L 205.253906 408.486797
L 187.253906 408.486797
z
" style="fill: #88afb8; stroke: #5b7480; stroke-width: 0.5; stroke-linejoin: miter"/>
    </g>
    <g id="text_18">
     <text style="font-size: 9px; font-family: 'DejaVu Sans'; text-anchor: start" x="212.453906" y="414.786797" transform="rotate(-0 212.453906 414.786797)">Normals (Float32)</text>
    </g>
    <g id="patch_25">
     <path d="M 187.253906 428.2875
L 205.253906 428.2875
L 205.253906 421.9875
L 187.253906 421.9875
z
" style="fill: #ccdbe0; stroke: #5b7480; stroke-width: 0.5; stroke-linejoin: miter"/>
    </g>
    <g id="text_19">
     <text style="font-size: 9px; font-family: 'DejaVu Sans'; text-anchor: start" x="212.453906" y="428.2875" transform="rotate(-0 212.453906 428.2875)">Indices (Uint32)</text>
    </g>
   </g>
  </g>
  <g id="axes_2">
   <g id="patch_26">
    <path d="M 516 351.45
L 882 351.45
L 882 118.8
L 516 118.8
z
" style="fill: #ffffff"/>
   </g>
   <g id="matplotlib.axis_3">
    <g id="xtick_4">
     <g id="line2d_14"/>
     <g id="text_20">
      <text style="font-size: 9px; font-family: 'DejaVu Sans'; text-anchor: middle" x="574.848033" y="361.788594" transform="rotate(-0 574.848033 361.788594)">Certified hybrid</text>
     </g>
    </g>
    <g id="xtick_5">
     <g id="line2d_15"/>
     <g id="text_21">
      <text style="font-size: 9px; font-family: 'DejaVu Sans'; text-anchor: middle" x="699" y="361.788594" transform="rotate(-0 699 361.788594)">Compact hybrid</text>
     </g>
    </g>
    <g id="xtick_6">
     <g id="line2d_16"/>
     <g id="text_22">
      <text style="font-size: 9px; font-family: 'DejaVu Sans'; text-anchor: middle" x="823.151967" y="361.788594" transform="rotate(-0 823.151967 361.788594)">Local triangles</text>
     </g>
    </g>
   </g>
   <g id="matplotlib.axis_4">
    <g id="ytick_6">
     <g id="line2d_17">
      <path d="M 516 351.45
L 882 351.45
" clip-path="url(#p6b0d9a796d)" style="fill: none; stroke: #e1e8eb; stroke-width: 0.7; stroke-linecap: square"/>
     </g>
     <g id="line2d_18">
      <g>
       <use xlink:href="#md7e525cd09" x="516" y="351.45" style="stroke: #000000; stroke-width: 0.8"/>
      </g>
     </g>
     <g id="text_23">
      <text style="font-size: 10px; font-family: 'DejaVu Sans'; text-anchor: end" x="509" y="355.248828" transform="rotate(-0 509 355.248828)">0</text>
     </g>
    </g>
    <g id="ytick_7">
     <g id="line2d_19">
      <path d="M 516 325.513039
L 882 325.513039
" clip-path="url(#p6b0d9a796d)" style="fill: none; stroke: #e1e8eb; stroke-width: 0.7; stroke-linecap: square"/>
     </g>
     <g id="line2d_20">
      <g>
       <use xlink:href="#md7e525cd09" x="516" y="325.513039" style="stroke: #000000; stroke-width: 0.8"/>
      </g>
     </g>
     <g id="text_24">
      <text style="font-size: 10px; font-family: 'DejaVu Sans'; text-anchor: end" x="509" y="329.311867" transform="rotate(-0 509 329.311867)">5</text>
     </g>
    </g>
    <g id="ytick_8">
     <g id="line2d_21">
      <path d="M 516 299.576078
L 882 299.576078
" clip-path="url(#p6b0d9a796d)" style="fill: none; stroke: #e1e8eb; stroke-width: 0.7; stroke-linecap: square"/>
     </g>
     <g id="line2d_22">
      <g>
       <use xlink:href="#md7e525cd09" x="516" y="299.576078" style="stroke: #000000; stroke-width: 0.8"/>
      </g>
     </g>
     <g id="text_25">
      <text style="font-size: 10px; font-family: 'DejaVu Sans'; text-anchor: end" x="509" y="303.374906" transform="rotate(-0 509 303.374906)">10</text>
     </g>
    </g>
    <g id="ytick_9">
     <g id="line2d_23">
      <path d="M 516 273.639117
L 882 273.639117
" clip-path="url(#p6b0d9a796d)" style="fill: none; stroke: #e1e8eb; stroke-width: 0.7; stroke-linecap: square"/>
     </g>
     <g id="line2d_24">
      <g>
       <use xlink:href="#md7e525cd09" x="516" y="273.639117" style="stroke: #000000; stroke-width: 0.8"/>
      </g>
     </g>
     <g id="text_26">
      <text style="font-size: 10px; font-family: 'DejaVu Sans'; text-anchor: end" x="509" y="277.437946" transform="rotate(-0 509 277.437946)">15</text>
     </g>
    </g>
    <g id="ytick_10">
     <g id="line2d_25">
      <path d="M 516 247.702157
L 882 247.702157
" clip-path="url(#p6b0d9a796d)" style="fill: none; stroke: #e1e8eb; stroke-width: 0.7; stroke-linecap: square"/>
     </g>
     <g id="line2d_26">
      <g>
       <use xlink:href="#md7e525cd09" x="516" y="247.702157" style="stroke: #000000; stroke-width: 0.8"/>
      </g>
     </g>
     <g id="text_27">
      <text style="font-size: 10px; font-family: 'DejaVu Sans'; text-anchor: end" x="509" y="251.500985" transform="rotate(-0 509 251.500985)">20</text>
     </g>
    </g>
    <g id="ytick_11">
     <g id="line2d_27">
      <path d="M 516 221.765196
L 882 221.765196
" clip-path="url(#p6b0d9a796d)" style="fill: none; stroke: #e1e8eb; stroke-width: 0.7; stroke-linecap: square"/>
     </g>
     <g id="line2d_28">
      <g>
       <use xlink:href="#md7e525cd09" x="516" y="221.765196" style="stroke: #000000; stroke-width: 0.8"/>
      </g>
     </g>
     <g id="text_28">
      <text style="font-size: 10px; font-family: 'DejaVu Sans'; text-anchor: end" x="509" y="225.564024" transform="rotate(-0 509 225.564024)">25</text>
     </g>
    </g>
    <g id="ytick_12">
     <g id="line2d_29">
      <path d="M 516 195.828235
L 882 195.828235
" clip-path="url(#p6b0d9a796d)" style="fill: none; stroke: #e1e8eb; stroke-width: 0.7; stroke-linecap: square"/>
     </g>
     <g id="line2d_30">
      <g>
       <use xlink:href="#md7e525cd09" x="516" y="195.828235" style="stroke: #000000; stroke-width: 0.8"/>
      </g>
     </g>
     <g id="text_29">
      <text style="font-size: 10px; font-family: 'DejaVu Sans'; text-anchor: end" x="509" y="199.627063" transform="rotate(-0 509 199.627063)">30</text>
     </g>
    </g>
    <g id="ytick_13">
     <g id="line2d_31">
      <path d="M 516 169.891274
L 882 169.891274
" clip-path="url(#p6b0d9a796d)" style="fill: none; stroke: #e1e8eb; stroke-width: 0.7; stroke-linecap: square"/>
     </g>
     <g id="line2d_32">
      <g>
       <use xlink:href="#md7e525cd09" x="516" y="169.891274" style="stroke: #000000; stroke-width: 0.8"/>
      </g>
     </g>
     <g id="text_30">
      <text style="font-size: 10px; font-family: 'DejaVu Sans'; text-anchor: end" x="509" y="173.690102" transform="rotate(-0 509 173.690102)">35</text>
     </g>
    </g>
    <g id="ytick_14">
     <g id="line2d_33">
      <path d="M 516 143.954313
L 882 143.954313
" clip-path="url(#p6b0d9a796d)" style="fill: none; stroke: #e1e8eb; stroke-width: 0.7; stroke-linecap: square"/>
     </g>
     <g id="line2d_34">
      <g>
       <use xlink:href="#md7e525cd09" x="516" y="143.954313" style="stroke: #000000; stroke-width: 0.8"/>
      </g>
     </g>
     <g id="text_31">
      <text style="font-size: 10px; font-family: 'DejaVu Sans'; text-anchor: end" x="509" y="147.753141" transform="rotate(-0 509 147.753141)">40</text>
     </g>
    </g>
    <g id="text_32">
     <text style="font-size: 10px; font-family: 'DejaVu Sans'; text-anchor: middle" x="489.872656" y="235.125" transform="rotate(-90 489.872656 235.125)">CPU geometry preparation median (ms)</text>
    </g>
   </g>
   <g id="patch_27">
    <path d="M 532.636364 351.45
L 572.364993 351.45
L 572.364993 211.996299
L 532.636364 211.996299
z
" clip-path="url(#p6b0d9a796d)" style="fill: #78929d"/>
   </g>
   <g id="patch_28">
    <path d="M 656.788331 351.45
L 696.516961 351.45
L 696.516961 212.279012
L 656.788331 212.279012
z
" clip-path="url(#p6b0d9a796d)" style="fill: #78929d"/>
   </g>
   <g id="patch_29">
    <path d="M 780.940299 351.45
L 820.668928 351.45
L 820.668928 281.809779
L 780.940299 281.809779
z
" clip-path="url(#p6b0d9a796d)" style="fill: #78929d"/>
   </g>
   <g id="patch_30">
    <path d="M 577.331072 351.45
L 617.059701 351.45
L 617.059701 177.999687
L 577.331072 177.999687
z
" clip-path="url(#p6b0d9a796d)" style="fill: #287887"/>
   </g>
   <g id="patch_31">
    <path d="M 701.483039 351.45
L 741.211669 351.45
L 741.211669 165.33
L 701.483039 165.33
z
" clip-path="url(#p6b0d9a796d)" style="fill: #287887"/>
   </g>
   <g id="patch_32">
    <path d="M 825.635007 351.45
L 865.363636 351.45
L 865.363636 288.126466
L 825.635007 288.126466
z
" clip-path="url(#p6b0d9a796d)" style="fill: #287887"/>
   </g>
   <g id="patch_33">
    <path d="M 516 351.45
L 516 118.8
" style="fill: none; stroke: #000000; stroke-width: 0.8; stroke-linejoin: miter; stroke-linecap: square"/>
   </g>
   <g id="patch_34">
    <path d="M 516 351.45
L 882 351.45
" style="fill: none; stroke: #000000; stroke-width: 0.8; stroke-linejoin: miter; stroke-linecap: square"/>
   </g>
   <g id="text_33">
    <text style="font-size: 9px; font-family: 'DejaVu Sans'; text-anchor: middle" x="552.500678" y="208.883863" transform="rotate(-0 552.500678 208.883863)">26.88</text>
   </g>
   <g id="text_34">
    <text style="font-size: 9px; font-family: 'DejaVu Sans'; text-anchor: middle" x="676.652646" y="209.166576" transform="rotate(-0 676.652646 209.166576)">26.83</text>
   </g>
   <g id="text_35">
    <text style="font-size: 9px; font-family: 'DejaVu Sans'; text-anchor: middle" x="800.804613" y="278.697344" transform="rotate(-0 800.804613 278.697344)">13.42</text>
   </g>
   <g id="text_36">
    <text style="font-size: 9px; font-family: 'DejaVu Sans'; text-anchor: middle" x="597.195387" y="174.887251" transform="rotate(-0 597.195387 174.887251)">33.44</text>
   </g>
   <g id="text_37">
    <text style="font-size: 9px; font-family: 'DejaVu Sans'; text-anchor: middle" x="721.347354" y="162.217565" transform="rotate(-0 721.347354 162.217565)">35.88</text>
   </g>
   <g id="text_38">
    <text style="font-size: 9px; font-family: 'DejaVu Sans'; text-anchor: middle" x="845.499322" y="285.014031" transform="rotate(-0 845.499322 285.014031)">12.21</text>
   </g>
   <g id="text_39">
    <text style="font-size: 11px; font-family: 'DejaVu Sans'; text-anchor: start" x="516" y="112.8" transform="rotate(-0 516 112.8)">B  CPU cost: sharing can add preparation time</text>
   </g>
   <g id="legend_2">
    <g id="patch_35">
     <path d="M 620.432813 401.286094
L 638.432813 401.286094
L 638.432813 394.986094
L 620.432813 394.986094
z
" style="fill: #78929d"/>
    </g>
    <g id="text_40">
     <text style="font-size: 9px; font-family: 'DejaVu Sans'; text-anchor: start" x="645.632813" y="401.286094" transform="rotate(-0 645.632813 401.286094)">Independent</text>
    </g>
    <g id="patch_36">
     <path d="M 720.681563 401.286094
L 738.681563 401.286094
L 738.681563 394.986094
L 720.681563 394.986094
z
" style="fill: #287887"/>
    </g>
    <g id="text_41">
     <text style="font-size: 9px; font-family: 'DejaVu Sans'; text-anchor: start" x="745.881563" y="401.286094" transform="rotate(-0 745.881563 401.286094)">Shared</text>
    </g>
   </g>
  </g>
  <g id="text_42">
   <text style="font-size: 15px; font-family: 'DejaVu Sans'; text-anchor: middle" x="450" y="36.147656" transform="rotate(-0 450 36.147656)">Shared display vertices: identical triangles, smaller input buffers</text>
  </g>
  <g id="text_43">
   <text style="font-size: 11px; font-family: 'DejaVu Sans'; text-anchor: middle; fill: #49606a" x="450" y="51.975" transform="rotate(-0 450 51.975)">Swiss DEM crop | 10 cm build target | Three representations | Exact-coordinate sharing</text>
  </g>
  <g id="text_44">
   <text style="font-size: 9px; font-family: 'DejaVu Sans'; text-anchor: start" x="58.5" y="440.55" transform="rotate(-0 58.5 440.55)">Left: unhatched = independent; hatched = shared. Triangle indices and oriented face geometry are unchanged.</text>
  </g>
  <g id="text_45">
   <text style="font-size: 9px; font-family: 'DejaVu Sans'; text-anchor: start" x="58.5" y="457.875" transform="rotate(-0 58.5 457.875)">Right: 3 alternating trials after warm-up; garbage collection and face-hash audit excluded from timing.</text>
  </g>
  <g id="text_46">
   <text style="font-size: 9px; font-family: 'DejaVu Sans'; text-anchor: start; fill: #49606a" x="58.5" y="475.2" transform="rotate(-0 58.5 475.2)">CPU TypedArray bytes only: excludes wire overlay, other Cesium buffers, peak/retained heap and GPU memory. No ArcGIS run.</text>
  </g>
 </g>
 <defs>
  <clipPath id="pde4e392fad">
   <rect x="58.5" y="118.8" width="366" height="232.65"/>
  </clipPath>
  <clipPath id="p6b0d9a796d">
   <rect x="516" y="118.8" width="366" height="232.65"/>
  </clipPath>
 </defs>
 <defs>
  <pattern id="h324522f85e" patternUnits="userSpaceOnUse" x="0" y="0" width="72" height="72">
   <rect x="0" y="0" width="73" height="73" fill="#287887"/>
   <path d="M -36 36
L 36 -36
M -30 42
L 42 -30
M -24 48
L 48 -24
M -18 54
L 54 -18
M -12 60
L 60 -12
M -6 66
L 66 -6
M 0 72
L 72 0
M 6 78
L 78 6
M 12 84
L 84 12
M 18 90
L 90 18
M 24 96
L 96 24
M 30 102
L 102 30
M 36 108
L 108 36
" style="fill: #5b7480; stroke: #5b7480; stroke-width: 1.0; stroke-linecap: butt; stroke-linejoin: miter"/>
  </pattern>
  <pattern id="h15548bba11" patternUnits="userSpaceOnUse" x="0" y="0" width="72" height="72">
   <rect x="0" y="0" width="73" height="73" fill="#88afb8"/>
   <path d="M -36 36
L 36 -36
M -30 42
L 42 -30
M -24 48
L 48 -24
M -18 54
L 54 -18
M -12 60
L 60 -12
M -6 66
L 66 -6
M 0 72
L 72 0
M 6 78
L 78 6
M 12 84
L 84 12
M 18 90
L 90 18
M 24 96
L 96 24
M 30 102
L 102 30
M 36 108
L 108 36
" style="fill: #5b7480; stroke: #5b7480; stroke-width: 1.0; stroke-linecap: butt; stroke-linejoin: miter"/>
  </pattern>
  <pattern id="h854f662c7e" patternUnits="userSpaceOnUse" x="0" y="0" width="72" height="72">
   <rect x="0" y="0" width="73" height="73" fill="#ccdbe0"/>
   <path d="M -36 36
L 36 -36
M -30 42
L 42 -30
M -24 48
L 48 -24
M -18 54
L 54 -18
M -12 60
L 60 -12
M -6 66
L 66 -6
M 0 72
L 72 0
M 6 78
L 78 6
M 12 84
L 84 12
M 18 90
L 90 18
M 24 96
L 96 24
M 30 102
L 102 30
M 36 108
L 108 36
" style="fill: #5b7480; stroke: #5b7480; stroke-width: 1.0; stroke-linecap: butt; stroke-linejoin: miter"/>
  </pattern>
 </defs>
</svg>
